<?xml version="1.0" encoding="UTF-8" standalone="no"?>
<!-- Created with Inkscape (http://www.inkscape.org/) -->

<svg
   xmlns:dc="http://purl.org/dc/elements/1.1/"
   xmlns:cc="http://creativecommons.org/ns#"
   xmlns:rdf="http://www.w3.org/1999/02/22-rdf-syntax-ns#"
   xmlns:svg="http://www.w3.org/2000/svg"
   xmlns="http://www.w3.org/2000/svg"
   xmlns:sodipodi="http://sodipodi.sourceforge.net/DTD/sodipodi-0.dtd"
   xmlns:inkscape="http://www.inkscape.org/namespaces/inkscape"
   width="800"
   height="606.71136"
   id="svg3997"
   version="1.1"
   inkscape:version="0.48.0 r9654"
   sodipodi:docname="Новый документ 5">
  <defs
     id="defs3999" />
  <sodipodi:namedview
     id="base"
     pagecolor="#ffffff"
     bordercolor="#666666"
     borderopacity="1.0"
     inkscape:pageopacity="0.0"
     inkscape:pageshadow="2"
     inkscape:zoom="0.35"
     inkscape:cx="123.62625"
     inkscape:cy="105.50654"
     inkscape:document-units="px"
     inkscape:current-layer="layer1"
     showgrid="false"
     fit-margin-top="0"
     fit-margin-left="0"
     fit-margin-right="0"
     fit-margin-bottom="0"
     inkscape:window-width="1280"
     inkscape:window-height="911"
     inkscape:window-x="-4"
     inkscape:window-y="-4"
     inkscape:window-maximized="1" />
  <metadata
     id="metadata4002">
    <rdf:RDF>
      <cc:Work
         rdf:about="">
        <dc:format>image/svg+xml</dc:format>
        <dc:type
           rdf:resource="http://purl.org/dc/dcmitype/StillImage" />
        <dc:title></dc:title>
      </cc:Work>
    </rdf:RDF>
  </metadata>
  <g
     inkscape:label="Layer 1"
     inkscape:groupmode="layer"
     id="layer1"
     transform="translate(-251.37375,-31.157366)">
    <g
       id="g4058"
       transform="matrix(1.7717216,0,0,1.7717216,-193.99057,-492.25712)">
      <path
         sodipodi:nodetypes="cssccccsscc"
         inkscape:connector-curvature="0"
         id="path3953"
         d="m 251.37376,637.86875 c 24.728,-20.2378 39.6751,-43.1683 48.981,-67.677 22.9816,-60.5266 12.4459,-125.6437 51.9116,-175.7487 13.0794,-16.6054 4.8557,-62.1559 5.1734,-87.9044 14.3712,19.1478 29.7152,31.486 40.4865,75.8333 40.3734,-9.1712 89.258,-7.7639 129.2191,-3.1531 19.3999,-68.8792 28.1018,-71.4312 38.3858,-83.7918 5.388,38.8229 16.7579,69.7416 37.3757,88.8934 46.2602,42.9709 50.0682,107.2507 64.6497,159.6041 8.9773,32.2321 35.3554,93.9442 35.3554,93.9442 z"
         style="fill:#6f6049;fill-opacity:1;stroke:none" />
      <path
         sodipodi:type="arc"
         style="fill:#000000;stroke:none"
         id="path3955"
         sodipodi:cx="1371.4286"
         sodipodi:cy="1014.1479"
         sodipodi:rx="49.285713"
         sodipodi:ry="46.07143"
         d="m 1420.7143,1014.1479 c 0,25.4445 -22.066,46.0714 -49.2857,46.0714 -27.2198,0 -49.2857,-20.6269 -49.2857,-46.0714 0,-25.44456 22.0659,-46.07144 49.2857,-46.07144 27.2197,0 49.2857,20.62688 49.2857,46.07144 z"
         transform="matrix(1.2011715,-0.19273186,0.16344633,1.070544,-1270.0997,-344.29691)" />
      <path
         sodipodi:type="arc"
         style="fill:#000000;stroke:none"
         id="path3957"
         sodipodi:cx="1237.1428"
         sodipodi:cy="994.14789"
         sodipodi:rx="37.142857"
         sodipodi:ry="43.92857"
         d="m 1274.2857,994.14789 c 0,24.26111 -16.6294,43.92861 -37.1429,43.92861 -20.5134,0 -37.1428,-19.6675 -37.1428,-43.92861 0,-24.26108 16.6294,-43.92857 37.1428,-43.92857 20.5135,0 37.1429,19.66749 37.1429,43.92857 z"
         transform="matrix(1.2424039,0,0,1.2068082,-1154.5437,-740.58175)" />
      <path
         transform="matrix(1.0770655,-0.17807444,0.14655893,0.9891282,-1088.8876,-280.38673)"
         d="m 1420.7143,1014.1479 c 0,25.4445 -22.066,46.0714 -49.2857,46.0714 -27.2198,0 -49.2857,-20.6269 -49.2857,-46.0714 0,-25.44456 22.0659,-46.07144 49.2857,-46.07144 27.2197,0 49.2857,20.62688 49.2857,46.07144 z"
         sodipodi:ry="46.07143"
         sodipodi:rx="49.285713"
         sodipodi:cy="1014.1479"
         sodipodi:cx="1371.4286"
         id="path3959"
         style="fill:#a86927;fill-opacity:1;stroke:none"
         sodipodi:type="arc" />
      <path
         transform="matrix(1.0621841,0,0,1.0883062,-924.89214,-620.97488)"
         d="m 1274.2857,994.14789 c 0,24.26111 -16.6294,43.92861 -37.1429,43.92861 -20.5134,0 -37.1428,-19.6675 -37.1428,-43.92861 0,-24.26108 16.6294,-43.92857 37.1428,-43.92857 20.5135,0 37.1429,19.66749 37.1429,43.92857 z"
         sodipodi:ry="43.92857"
         sodipodi:rx="37.142857"
         sodipodi:cy="994.14789"
         sodipodi:cx="1237.1428"
         id="path3961"
         style="fill:#a86927;fill-opacity:1;stroke:none"
         sodipodi:type="arc" />
      <path
         inkscape:connector-curvature="0"
         style="fill:#000000;stroke:none"
         d="m 376.22306,451.00535 c -1.361,3.0214 -2.125,6.357 -2.125,9.8438 0,13.9473 12.0524,25.25 26.9062,25.25 14.8539,0 26.9063,-11.3027 26.9063,-25.25 0,-3.4868 -0.764,-6.8224 -2.125,-9.8438 l -49.5625,0 z"
         id="path3965" />
      <path
         inkscape:connector-curvature="0"
         style="fill:#000000;stroke:none"
         d="m 489.09806,461.19285 c -0.1954,1.4175 -0.3125,2.8423 -0.3125,4.3125 0,17.6368 14.5218,31.9376 32.4375,31.9376 16.796,-10e-5 30.5888,-12.5533 32.25,-28.6563 l -64.375,-7.5938 z"
         id="path3967" />
      <path
         id="path3969"
         d="m 381.59806,456.79605 c -0.023,0.422 -0.031,0.8533 -0.031,1.2813 0,11.9916 9.2487,21.7187 20.6562,21.7187 11.4075,0 20.6562,-9.7271 20.6562,-21.7187 0,-0.4281 -0.01,-0.8593 -0.031,-1.2813 l -12.625,0 0,0.1875 c 0,4.0373 -2.837,7.3125 -6.3125,7.3125 -3.4755,0 -6.2811,-3.2752 -6.2813,-7.3125 l 0,-0.1875 -16.0312,0 z m 113.0312,8.75 c 0.2803,13.9213 11.4542,25.125 25.1876,25.125 11.3894,0 21.0119,-7.7113 24.125,-18.2813 -5.4917,-0.7735 -11.758,-1.6407 -17.9063,-2.5 -1.5504,2.3794 -4.2054,3.9375 -7.2187,3.9376 -3.8508,0 -7.1258,-2.5525 -8.25,-6.0938 -5.4646,-0.7547 -11.1035,-1.5343 -15.9376,-2.1875 z"
         style="fill:#f9e431;fill-opacity:1;stroke:none"
         inkscape:connector-curvature="0" />
      <path
         id="path3963"
         d="m 399.19186,395.20235 c 0,0 -1.9173,30.5784 2.3437,45.9374 -6.9446,2.1231 -15.0938,6.457 -27.1875,9.0626 l 38.2812,0.5312 c 8.2857,3.1251 11.6542,12.8203 15.0938,21 -14.5691,23.4907 -29.639,32.5255 -54.4062,39.4062 23.5037,4.614 56.9161,27.2236 75.3124,64.4376 11.3109,-31.1383 26.769,-49.4867 88.2813,-48.3126 -21.0763,-11.14 -47.0964,-24.4263 -52.9687,-50.5937 4.815,-5.5223 8.3043,-10.4038 12.8437,-15 l 60.4063,6.75 c -10e-5,0 -10.0924,-3.8574 -17.125,-10 -10.3375,-9.0294 -17.6855,-12.3416 -28.9063,-8.6875 9.389,-12.0007 12.2812,-45.7187 12.2813,-45.7188 -46.8953,79.8368 -85.8127,56.8592 -124.25,-8.8124 z"
         style="fill:#a19584;fill-opacity:1;stroke:none"
         inkscape:connector-curvature="0" />
      <path
         style="fill:#000000;stroke:none"
         d="m 448.80786,476.72465 c -33.2659,30.049 -20.2246,65.6497 -4.1874,98.5937 5.8242,-21.1258 8.1543,-16.4215 20.4643,-34.0267 3.4632,-4.953 -4.2008,-42.758 -16.2769,-64.567 z"
         id="path3951"
         inkscape:connector-curvature="0"
         sodipodi:nodetypes="ccsc" />
    </g>
  </g>
</svg>
